<?xml version="1.0" encoding="iso-8859-1"?>
<!-- Generator: Adobe Illustrator 17.0.0, SVG Export Plug-In . SVG Version: 6.00 Build 0)  -->
<!DOCTYPE svg PUBLIC "-//W3C//DTD SVG 1.1//EN" "http://www.w3.org/Graphics/SVG/1.1/DTD/svg11.dtd">
<svg version="1.1" xmlns="http://www.w3.org/2000/svg" xmlns:xlink="http://www.w3.org/1999/xlink" x="0px" y="0px" width="40px"
	 height="40px" viewBox="0 0 40 40" style="enable-background:new 0 0 40 40;" xml:space="preserve">
<g id="Rectangle_11_copy_5_1_" style="enable-background:new    ;">
</g>
<g id="Sanctuaries_xA0_Image_1_">
</g>
<g id="Charting_xA0_Image_1_">
</g>
<g id="marine__x26__aviation_xA0_Image_1_">
</g>
<g id="Research_xA0_Image_1_">
</g>
<g id="Satelittes_xA0_Image_1_">
</g>
<g id="fisheries_xA0_Image_1_">
</g>
<g id="oceans_and_coasts_xA0_Image_1_">
</g>
<g id="Climate_xA0_Image_1_">
</g>
<g id="weather_xA0_Image_1_">
	<g id="XMLID_61_">
		<g id="XMLID_93_">
			<g id="XMLID_94_">
				<g>
					<path style="fill:#FFFFFF;" d="M30.249,16.824c-0.299,0-0.591-0.15-0.758-0.424c-2.555-4.174-7.501-6.379-12.315-5.488
						c-0.481,0.09-0.806-1.656-0.324-1.745c5.526-1.024,11.215,1.509,14.153,6.306c0.255,0.418,0.125,0.964-0.294,1.221
						C30.567,16.782,30.406,16.824,30.249,16.824z"/>
				</g>
			</g>
		</g>
		<g id="XMLID_91_">
			<g id="XMLID_92_">
				<g>
					<path style="fill:#FFFFFF;" d="M26.096,34.406c-0.297,0-0.587-0.149-0.756-0.42c-0.258-0.417-0.129-0.964,0.287-1.223
						c4.159-2.577,6.335-7.538,5.418-12.346c-0.092-0.482,1.65-0.815,1.743-0.333c1.054,5.525-1.447,11.226-6.225,14.188
						C26.417,34.363,26.255,34.406,26.096,34.406z"/>
				</g>
			</g>
		</g>
		<g id="XMLID_89_">
			<g id="XMLID_90_">
				<g>
					<path style="fill:#FFFFFF;" d="M5.888,25.237c-1.092-5.622,1.474-11.381,6.385-14.331c0.419-0.254,0.965-0.118,1.218,0.304
						c0.253,0.42,0.116,0.965-0.304,1.217c-4.274,2.567-6.507,7.579-5.556,12.472C7.724,25.38,5.97,25.661,5.888,25.237z"/>
				</g>
			</g>
		</g>
		<g id="XMLID_87_">
			<g id="XMLID_88_">
				<g>
					<path style="fill:#FFFFFF;" d="M19.343,36.331c-4.71,0-9.2-2.447-11.705-6.568c-0.255-0.418-0.122-0.965,0.297-1.219
						c0.418-0.254,0.965-0.123,1.219,0.297c2.59,4.259,7.608,6.459,12.503,5.487c0.468-0.094,0.828,1.645,0.347,1.741
						C21.118,36.245,20.226,36.331,19.343,36.331z"/>
				</g>
			</g>
		</g>
		<g id="XMLID_64_">
			<g id="XMLID_85_">
				<g id="XMLID_86_">
					<g>
						<path style="fill:#FFFFFF;" d="M28.555,28.897c-0.081,0-0.162-0.01-0.242-0.034l-5.604-1.588
							c-0.472-0.134,0.012-1.843,0.483-1.708l3.569,1.361l-2.949-2.417c-0.346-0.347,0.912-1.602,1.257-1.253l4.115,4.124
							c0.285,0.285,0.341,0.728,0.136,1.076C29.159,28.736,28.864,28.897,28.555,28.897z"/>
					</g>
				</g>
			</g>
			<g id="XMLID_83_">
				<g id="XMLID_84_">
					<g>
						<path style="fill:#FFFFFF;" d="M13.709,21.989l-4.115-4.123c-0.285-0.287-0.342-0.729-0.137-1.077
							c0.205-0.348,0.62-0.517,1.007-0.405l5.604,1.587c0.472,0.134-0.014,1.842-0.483,1.708l-3.568-1.36l2.949,2.414
							C15.311,21.082,13.882,22.163,13.709,21.989z"/>
					</g>
				</g>
			</g>
			<g id="XMLID_71_">
				<g id="XMLID_72_">
					<g>
						<path style="fill:#FFFFFF;" d="M14.003,32.679c-0.154,0-0.309-0.04-0.449-0.123c-0.348-0.205-0.514-0.618-0.405-1.007
							l1.587-5.606c0.134-0.472,1.842,0.012,1.708,0.483l-1.387,3.524l2.442-2.905c0.347-0.346,1.601,0.911,1.254,1.257
							l-4.123,4.116C14.46,32.59,14.232,32.679,14.003,32.679z"/>
					</g>
				</g>
			</g>
			<g id="XMLID_69_">
				<g id="XMLID_70_">
					<g>
						<path style="fill:#FFFFFF;" d="M24.041,19.303l1.587-5.604c0.11-0.388-0.057-0.802-0.405-1.007
							c-0.347-0.203-0.791-0.148-1.077,0.136l-4.123,4.115l1.255,1.257l2.441-2.904l-1.387,3.523L24.041,19.303z"/>
					</g>
				</g>
			</g>
			<g id="XMLID_65_">
				<g id="XMLID_66_">
					<g>
						<path style="fill:#FFFFFF;" d="M23.118,37.862c-0.321,0-0.625-0.175-0.782-0.468l-5.55-10.339L5.053,27.241
							c-0.425,0.009-0.77-0.268-0.873-0.665c-0.103-0.396,0.079-0.811,0.439-1.006l10.339-5.55L14.772,8.288
							c-0.006-0.409,0.268-0.77,0.665-0.873c0.396-0.106,0.811,0.077,1.005,0.439l5.55,10.339l11.732-0.186
							c0.407-0.031,0.77,0.268,0.873,0.665c0.103,0.396-0.079,0.811-0.439,1.006l-10.339,5.549l0.183,11.529
							c0.017,0.071,0.027,0.143,0.027,0.218c0,0.49-0.396,0.888-0.888,0.888C23.133,37.86,23.123,37.86,23.118,37.862z
							 M17.312,25.272c0.327,0,0.627,0.179,0.782,0.468l4.451,8.918l-0.509-9.943c-0.005-0.332,0.176-0.639,0.468-0.796l9.032-4.421
							l-10.056,0.48c-0.333-0.01-0.639-0.175-0.796-0.468l-4.451-8.918l0.509,9.942c0.005,0.332-0.175,0.639-0.468,0.796
							l-9.033,4.422l10.057-0.48H17.312z"/>
					</g>
				</g>
			</g>
		</g>
		<g id="XMLID_62_">
			<g id="XMLID_63_">
				<g>
					<path style="fill:#FFFFFF;" d="M13.545,7.225c-0.395,0-0.755-0.265-0.859-0.665l-0.8-3.079c-0.091-0.35,0.04-0.721,0.332-0.937
						c0.291-0.216,0.685-0.231,0.993-0.042l2.019,1.695l-0.393-1.465c-0.123-0.474,0.162-0.959,0.636-1.082
						c0.47-0.125,0.959,0.161,1.082,0.636l0.796,3.062c0.091,0.35-0.04,0.721-0.332,0.937c-0.291,0.216-0.684,0.231-0.993,0.042
						l-1.98-1.562l0.358,1.35c0.123,0.474-0.162,0.959-0.636,1.082C13.694,7.216,13.619,7.225,13.545,7.225z"/>
				</g>
			</g>
		</g>
	</g>
</g>
<g id="RULES_1_">
</g>
</svg>
