<?xml version="1.0" encoding="iso-8859-1"?>
<!-- Generator: Adobe Illustrator 17.0.0, SVG Export Plug-In . SVG Version: 6.00 Build 0)  -->
<!DOCTYPE svg PUBLIC "-//W3C//DTD SVG 1.1//EN" "http://www.w3.org/Graphics/SVG/1.1/DTD/svg11.dtd">
<svg version="1.1" xmlns="http://www.w3.org/2000/svg" xmlns:xlink="http://www.w3.org/1999/xlink" x="0px" y="0px" width="40px"
	 height="40px" viewBox="0 0 40 40" style="enable-background:new 0 0 40 40;" xml:space="preserve">
<g id="Rectangle_11_copy_5_1_" style="enable-background:new    ;">
</g>
<g id="Sanctuaries_xA0_Image_1_">
</g>
<g id="Charting_xA0_Image_1_">
</g>
<g id="marine__x26__aviation_xA0_Image_1_">
</g>
<g id="Research_xA0_Image_1_">
</g>
<g id="Satelittes_xA0_Image_1_">
</g>
<g id="fisheries_xA0_Image_1_">
</g>
<g id="oceans_and_coasts_xA0_Image_1_">
</g>
<g id="Climate_xA0_Image_1_">
</g>
<g id="weather_xA0_Image_1_">
	<g>
		<g>
			<g>
				<path style="fill:#FFFFFF;" d="M24.034,23.874V7.329c0-1.46-1.194-2.654-2.654-2.654c-1.46,0-2.654,1.194-2.654,2.654v0.195
					H15.04c-0.576,0-1.043,0.467-1.043,1.043c0,0.576,0.467,1.043,1.043,1.043h3.686V12h-8.583c-0.001,0-0.001,0-0.002,0
					s-0.001,0-0.002,0H9.983c-0.069,0-0.12,0.024-0.159,0.063c-0.421,0.136-0.73,0.517-0.73,0.983c0,0.521,0.388,0.935,0.887,1.015
					c0,0.007,0.002,0.018,0.002,0.025h0.122c0.013,0,0.023,0.007,0.036,0.007s0.023-0.007,0.036-0.007h8.549v2.39H15.04
					c-0.576,0-1.043,0.467-1.043,1.043c0,0.576,0.467,1.043,1.043,1.043h3.686v2.39H15.04c-0.576,0-1.043,0.467-1.043,1.043
					s0.467,1.043,1.043,1.043h3.686v0.835c-1.804,0.959-3.049,2.836-3.049,5.017c0,3.145,2.559,5.704,5.703,5.704
					c3.145,0,5.704-2.559,5.704-5.704C27.084,26.71,25.838,24.833,24.034,23.874z M21.379,32.509c-1.994,0-3.617-1.623-3.617-3.617
					c0-1.691,1.172-3.104,2.742-3.498v-1.102v-1.015v-7.109c0-0.478,0.391-0.869,0.869-0.869c0.478,0,0.869,0.391,0.869,0.869v7.107
					v1.017v1.098c1.577,0.39,2.755,1.806,2.755,3.502C24.997,30.886,23.375,32.509,21.379,32.509z"/>
			</g>
		</g>
		<g>
			<g>
				<path style="fill:#FFFFFF;" d="M9.983,14.086"/>
			</g>
		</g>
	</g>
</g>
<g id="RULES_1_">
</g>
</svg>
