<?xml version="1.0" encoding="iso-8859-1"?>
<!-- Generator: Adobe Illustrator 17.0.0, SVG Export Plug-In . SVG Version: 6.00 Build 0)  -->
<!DOCTYPE svg PUBLIC "-//W3C//DTD SVG 1.1//EN" "http://www.w3.org/Graphics/SVG/1.1/DTD/svg11.dtd">
<svg version="1.1" xmlns="http://www.w3.org/2000/svg" xmlns:xlink="http://www.w3.org/1999/xlink" x="0px" y="0px" width="40px"
	 height="40px" viewBox="0 0 40 40" style="enable-background:new 0 0 40 40;" xml:space="preserve">
<g id="Rectangle_11_copy_5_1_" style="enable-background:new    ;">
</g>
<g id="Sanctuaries_xA0_Image_1_">
</g>
<g id="Charting_xA0_Image_1_">
</g>
<g id="marine__x26__aviation_xA0_Image_1_">
</g>
<g id="Research_xA0_Image_1_">
</g>
<g id="Satelittes_xA0_Image_1_">
</g>
<g id="fisheries_xA0_Image_1_">
</g>
<g id="oceans_and_coasts_xA0_Image_1_">
</g>
<g id="Climate_xA0_Image_1_">
</g>
<g id="weather_xA0_Image_1_">
	<g id="XMLID_23_">
		<g id="XMLID_24_">
			<g>
				<path style="fill:#FFFFFF;" d="M25.834,30.063c-0.08,0-0.161-0.012-0.24-0.036c-0.274-0.084-0.483-0.304-0.554-0.582
					c-0.053-0.211-0.111-0.488-0.176-0.797c-0.102-0.489-0.221-1.061-0.364-1.558c-0.113,0.004-0.231,0.004-0.384,0.004h-0.164
					c-2.317,0-4.495-0.603-6.815-1.89c-0.778,0.513-1.991,1.137-3.382,1.224c-0.334,0.016-0.642-0.162-0.787-0.46
					c-0.145-0.299-0.095-0.655,0.127-0.903c0.373-0.415,0.579-1.177,0.581-2.123c-0.878-0.571-2.06-0.96-3.095-1.021
					c-1.677,3.481-4.574,4.93-4.702,4.993c-0.297,0.146-0.656,0.097-0.905-0.127c-0.248-0.223-0.336-0.574-0.223-0.887
					c0.014-0.037,1.352-3.748,1.352-5.731c0-0.995-0.625-2.683-1.713-4.629c-0.194-0.349-0.189-0.76,0.011-1.101
					c0.278-0.467,0.889-0.671,1.388-0.455c1.3,0.56,3.59,1.848,4.885,4.337c1.035-0.067,2.364-0.299,3.3-0.67
					c0.397-0.685,1.002-1.992,0.568-3.033c-0.105-0.252-0.077-0.541,0.075-0.768c0.152-0.228,0.407-0.364,0.68-0.364
					c0.95,0,2.156,0.692,3.588,2.059c0.493-0.163,0.932-0.287,1.353-0.385l2.056-3.606c0.214-0.375,0.682-0.52,1.069-0.33
					c0.389,0.189,3.599,1.807,4.526,3.835c3.114,0.871,5.918,2.651,7.745,4.928c0.229,0.286,0.241,0.689,0.028,0.987
					c-1.781,2.501-4.783,4.591-7.919,5.537c-0.756,2.797-1.165,3.162-1.367,3.342C26.227,29.99,26.032,30.063,25.834,30.063z
					 M24.753,25.399c0.33,0,0.633,0.2,0.759,0.513c0.06,0.151,0.25,1.598,0.361,2.327c0.031,0.203,0.056,0.35,0.07,0.398
					c0.075-0.263,0.507-2.766,0.593-3.095c0.073-0.285,0.296-0.51,0.582-0.584c3.206-0.848,5.429-2.705,6.828-4.427
					c-1.682-1.85-4.205-3.325-6.876-3.994c-0.29-0.072-0.516-0.298-0.592-0.587c-0.253-0.973-1.864-2.159-3.155-2.895l-1.843,3.234
					c-0.117,0.205-0.317,0.35-0.549,0.397c-0.592,0.118-1.204,0.294-1.983,0.57c-0.298,0.106-0.629,0.031-0.853-0.195
					c-0.704-0.708-1.298-1.19-1.766-1.496c-0.045,1.275-0.652,2.463-1.099,3.175c-0.085,0.134-0.209,0.242-0.353,0.308
					c-1.368,0.622-3.395,0.685-4.698,0.697H10.17c-0.325,0-0.62,0.042-0.749-0.257c-0.657-1.507-2.379-3.227-3.407-3.9
					c0.715,1.158,1.726,3.424,1.726,4.582c0,1.111-0.908,3.867-1.487,5.008c0.78-0.751,2.449-2.971,3.051-4.395
					c0.121-0.289,0.367-0.376,0.679-0.392c1.55-0.078,3.531,0.406,4.847,1.359l0.136,0.096c0.198,0.145,0.32,0.372,0.333,0.616
					c0.031,0.581,0.013,1.279-0.142,1.959c0.615-0.259,1.122-0.598,1.443-0.839c0.264-0.199,0.622-0.22,0.907-0.052
					c2.262,1.333,4.25,1.927,6.445,1.927h0.164c0.333,0,0.143-0.003,0.532-0.053C24.684,25.401,24.719,25.399,24.753,25.399z"/>
			</g>
		</g>
	</g>
</g>
<g id="RULES_1_">
</g>
</svg>
