<?xml version="1.0" encoding="iso-8859-1"?>
<!-- Generator: Adobe Illustrator 17.0.0, SVG Export Plug-In . SVG Version: 6.00 Build 0)  -->
<!DOCTYPE svg PUBLIC "-//W3C//DTD SVG 1.1//EN" "http://www.w3.org/Graphics/SVG/1.1/DTD/svg11.dtd">
<svg version="1.1" xmlns="http://www.w3.org/2000/svg" xmlns:xlink="http://www.w3.org/1999/xlink" x="0px" y="0px" width="40px"
	 height="40px" viewBox="0 0 40 40" style="enable-background:new 0 0 40 40;" xml:space="preserve">
<g id="Rectangle_11_copy_5_1_" style="enable-background:new    ;">
</g>
<g id="Sanctuaries_xA0_Image_1_">
</g>
<g id="Charting_xA0_Image_1_">
</g>
<g id="marine__x26__aviation_xA0_Image_1_">
</g>
<g id="Research_xA0_Image_1_">
</g>
<g id="Satelittes_xA0_Image_1_">
</g>
<g id="fisheries_xA0_Image_1_">
</g>
<g id="oceans_and_coasts_xA0_Image_1_">
</g>
<g id="Climate_xA0_Image_1_">
</g>
<g id="weather_xA0_Image_1_">
	<g id="XMLID_42_">
		<g id="XMLID_48_">
			<g id="XMLID_56_">
				<g id="XMLID_60_">
					<g>
						<path style="fill:#FFFFFF;" d="M22.23,17.686c-0.461,0-0.918-0.183-1.265-0.532l-3.645-3.53l1.392-1.437l3.557,3.445
							l0.818-0.429c-0.231-1.001-0.59-2.842-0.893-4.021c-0.237-0.923,0.179-1.889,0.987-2.297l5.752-2.898
							c-0.072-0.065-0.383-0.212-1.106-0.212C27.722,5.777,27.36,5.846,27.07,5.92L26.56,6.078L20.744,8.83
							c-0.445,0.225-0.966,0.249-1.427,0.066l-3.521-1.384l-3.581-0.883l-0.1,0.056l3.869,2.933l-1.207,1.594L8.477,6.437
							l2.842-1.598c0.394-0.223,0.854-0.285,1.291-0.172l3.919,0.984l3.415,1.342l0.967-0.487l4.996-2.319l0.622-0.191
							c0.235-0.062,0.888-0.221,1.3-0.221c1.261,0,2.162,0.328,2.679,0.974c0.483,0.605,0.442,1.245,0.404,1.488
							c-0.083,0.666-0.469,1.231-1.039,1.517l-5.789,2.918c0.366,1.248,0.734,3.137,0.926,4.153
							c0.165,0.874-0.243,1.759-0.993,2.151l-0.977,0.511C22.782,17.621,22.506,17.686,22.23,17.686z"/>
					</g>
				</g>
				<g id="XMLID_59_">
					<g>
						<path style="fill:#FFFFFF;" d="M8.393,15.175l-1.065-3.783c-0.267-0.948,0.164-1.979,1.002-2.399
							c1.214-0.605,2.633-0.226,3.451,0.924l0.625,0.878l7.438-3.751l0.9,1.786l-7.621,3.844c-0.781,0.393-1.73,0.147-2.253-0.586
							l-0.72-1.012c-0.241-0.339-0.604-0.453-0.927-0.294c0.03-0.012,0.021,0.04,0.029,0.068l1.065,3.783L8.393,15.175z"/>
					</g>
				</g>
				<g id="XMLID_58_">
					<g>
						<path style="fill:#FFFFFF;" d="M11.204,17.548c-0.68,0-1.489-0.254-1.719-0.359c-0.399-0.182-0.652-0.45-0.75-0.798
							l-0.343-1.216c-0.978-0.676-2.449-1.818-2.512-1.867l-1.188-0.923l2-1.126l0.327,0.583l0.088-0.113
							c0.015,0.012,1.492,1.158,2.45,1.823c0.367,0.255,0.637,0.64,0.761,1.084l0.229,0.809c0.243,0.061,0.59,0.109,0.701,0.107
							c-0.006,0-0.112,0.006-0.255,0.074l0.861,1.805C11.677,17.515,11.449,17.548,11.204,17.548z"/>
					</g>
				</g>
				<g id="XMLID_57_">
					<g>
						<path style="fill:#FFFFFF;" d="M12.553,19.092l-2.47-2.5l1.422-1.405l0.673,0.681c-0.11-0.859,0.308-1.689,1.053-2.055
							l6.642-3.094l0.844,1.812l-6.623,3.085c0.152,0.408,0.445,1.111,0.541,1.326l0.385,0.859L12.553,19.092z"/>
					</g>
				</g>
			</g>
			<g id="XMLID_55_">
				<g>
					<path style="fill:#FFFFFF;" d="M14.434,34.764L7.929,21.347h13.982l0.288,0.5c0.04,0.067,1.082,1.775,3.173,1.775h8.435v2
						h-8.435c-2.431,0-3.924-1.475-4.556-2.276H11.12l5.112,10.544L14.434,34.764z"/>
				</g>
			</g>
			<g id="XMLID_54_">
				<g>
					<path style="fill:#FFFFFF;" d="M33.807,35.572c-2.471,0-3.735-1.097-4.851-2.064c-1.015-0.88-1.815-1.575-3.539-1.575
						s-2.524,0.695-3.538,1.575c-1.115,0.967-2.379,2.064-4.85,2.064c-2.472,0-3.735-1.097-4.852-2.064
						c-1.015-0.88-1.816-1.575-3.541-1.575v-2c2.472,0,3.735,1.097,4.852,2.064c1.015,0.88,1.816,1.575,3.541,1.575
						c1.724,0,2.525-0.695,3.539-1.575c1.115-0.967,2.379-2.064,4.849-2.064c2.471,0,3.734,1.096,4.85,2.064
						c1.015,0.88,1.815,1.575,3.54,1.575V35.572z"/>
				</g>
			</g>
			<g id="XMLID_53_">
				<g>
					<path style="fill:#FFFFFF;" d="M18.204,31.118c-1.279,0-2.477-0.686-3.126-1.79l1.725-1.014
						c0.291,0.496,0.828,0.803,1.401,0.803s1.109-0.307,1.4-0.802l1.725,1.015C20.68,30.433,19.482,31.118,18.204,31.118z"/>
				</g>
			</g>
			<g id="XMLID_52_">
				<g>
					<rect x="17.204" y="24.822" style="fill:#FFFFFF;" width="2" height="4.983"/>
				</g>
			</g>
			<g id="XMLID_51_">
				<g>
					<rect x="17.162" y="25.055" style="fill:#FFFFFF;" width="2.083" height="2"/>
				</g>
			</g>
			<g id="XMLID_50_">
				<g>
					<rect x="26.51" y="18.887" style="fill:#FFFFFF;" width="7.297" height="2"/>
				</g>
			</g>
			<g id="XMLID_49_">
				<g>
					<rect x="28.565" y="14.886" style="fill:#FFFFFF;" width="5.241" height="2"/>
				</g>
			</g>
		</g>
		<g id="XMLID_47_">
			<g>
				<rect x="32.807" y="12.131" style="fill:#FFFFFF;" width="2" height="3.755"/>
			</g>
		</g>
		<g id="XMLID_46_">
			<g>
				<rect x="30.187" y="13.426" style="fill:#FFFFFF;" width="2" height="2.459"/>
			</g>
		</g>
	</g>
</g>
<g id="RULES_1_">
</g>
</svg>
