<?xml version="1.0" encoding="iso-8859-1"?>
<!-- Generator: Adobe Illustrator 17.0.0, SVG Export Plug-In . SVG Version: 6.00 Build 0)  -->
<!DOCTYPE svg PUBLIC "-//W3C//DTD SVG 1.1//EN" "http://www.w3.org/Graphics/SVG/1.1/DTD/svg11.dtd">
<svg version="1.1" xmlns="http://www.w3.org/2000/svg" xmlns:xlink="http://www.w3.org/1999/xlink" x="0px" y="0px" width="40px"
	 height="40px" viewBox="0 0 40 40" style="enable-background:new 0 0 40 40;" xml:space="preserve">
<g id="Rectangle_11_copy_5_1_" style="enable-background:new    ;">
</g>
<g id="Sanctuaries_xA0_Image_1_">
</g>
<g id="Charting_xA0_Image_1_">
</g>
<g id="marine__x26__aviation_xA0_Image_1_">
</g>
<g id="Research_xA0_Image_1_">
</g>
<g id="Satelittes_xA0_Image_1_">
</g>
<g id="fisheries_xA0_Image_1_">
</g>
<g id="oceans_and_coasts_xA0_Image_1_">
</g>
<g id="Climate_xA0_Image_1_">
</g>
<g id="weather_xA0_Image_1_">
	<g id="XMLID_35_">
		<g id="XMLID_41_">
			<g>
				<path style="fill:#FFFFFF;" d="M19.625,10.562c-2.191,0-4.754-0.587-4.763-2.244c-0.007-1.674,2.584-2.282,4.805-2.293
					c2.256,0,4.818,0.587,4.827,2.244c0.007,1.675-2.584,2.282-4.805,2.293H19.625z M17.462,8.306
					c0.499,0.138,1.235,0.257,2.163,0.257v1l0.055-1c0.955-0.005,1.711-0.133,2.218-0.28c-0.499-0.138-1.236-0.257-2.166-0.257
					C18.744,8.03,17.975,8.159,17.462,8.306z"/>
			</g>
		</g>
		<g id="XMLID_40_">
			<g>
				<path style="fill:#FFFFFF;" d="M19.645,32.666c-2.613,0-5.08-0.336-6.96-0.951c-2.898-0.947-3.512-2.257-3.517-3.19
					l-0.002-0.501l6.321-12.914L15.455,8.7l2-0.011l0.035,6.878l-6.321,12.948c0.001,0.188,0.54,0.776,2.138,1.298
					c1.72,0.562,4.024,0.881,6.486,0.852c5.595-0.029,8.604-1.603,8.602-2.24v-0.032L21.94,15.545l-0.035-6.878l2-0.011l0.033,6.41
					l6.454,12.85l0.002,0.5c0.015,2.881-5.48,4.223-10.592,4.249C19.751,32.666,19.698,32.666,19.645,32.666z"/>
			</g>
		</g>
		<g id="XMLID_36_">
			<g id="XMLID_39_">
				<g>
					<path style="fill:#FFFFFF;" d="M16.054,27.882c-3.348-0.54-5.195-1.711-5.203-3.297l2-0.01
						c0.086,0.236,1.098,0.941,3.521,1.332L16.054,27.882z"/>
				</g>
			</g>
			<g id="XMLID_38_">
				<g>
					<path style="fill:#FFFFFF;" d="M16.582,24.635c-2.729-0.467-4.236-1.471-4.244-2.825l2-0.012c0-0.055-0.016-0.094-0.021-0.104
						c0.109,0.19,0.891,0.676,2.604,0.969L16.582,24.635z"/>
				</g>
			</g>
			<g id="XMLID_37_">
				<g>
					<path style="fill:#FFFFFF;" d="M17.082,21.597c-2.884-0.503-3.493-1.603-3.497-2.437l2-0.009
						c-0.001-0.107-0.04-0.182-0.054-0.2c0.081,0.103,0.603,0.449,1.895,0.674L17.082,21.597z"/>
				</g>
			</g>
		</g>
	</g>
</g>
<g id="RULES_1_">
</g>
</svg>
