<?xml version="1.0" encoding="iso-8859-1"?>
<!-- Generator: Adobe Illustrator 17.0.0, SVG Export Plug-In . SVG Version: 6.00 Build 0)  -->
<!DOCTYPE svg PUBLIC "-//W3C//DTD SVG 1.1//EN" "http://www.w3.org/Graphics/SVG/1.1/DTD/svg11.dtd">
<svg version="1.1" xmlns="http://www.w3.org/2000/svg" xmlns:xlink="http://www.w3.org/1999/xlink" x="0px" y="0px" width="40px"
	 height="40px" viewBox="0 0 40 40" style="enable-background:new 0 0 40 40;" xml:space="preserve">
<g id="Rectangle_11_copy_5_1_" style="enable-background:new    ;">
</g>
<g id="Sanctuaries_xA0_Image_1_">
</g>
<g id="Charting_xA0_Image_1_">
</g>
<g id="marine__x26__aviation_xA0_Image_1_">
</g>
<g id="Research_xA0_Image_1_">
</g>
<g id="Satelittes_xA0_Image_1_">
</g>
<g id="fisheries_xA0_Image_1_">
</g>
<g id="oceans_and_coasts_xA0_Image_1_">
</g>
<g id="Climate_xA0_Image_1_">
</g>
<g id="weather_xA0_Image_1_">
	<g id="XMLID_2891_">
		<g id="XMLID_2904_">
			<path style="fill:#FFFFFF;" d="M13.126,24.825c-1.84-1.152-2.938-3.133-2.938-5.3c0-3.447,2.804-6.25,6.251-6.25
				c3.446,0,6.25,2.804,6.25,6.25h-2c0-2.344-1.906-4.25-4.25-4.25s-4.251,1.907-4.251,4.25c0,1.474,0.747,2.821,1.998,3.605
				L13.126,24.825z"/>
		</g>
		<g id="XMLID_2893_">
			<g id="XMLID_2903_">
				<path style="fill:#FFFFFF;" d="M5.581,26.831c-0.345,0-0.68-0.178-0.866-0.498c-0.277-0.478-0.114-1.089,0.363-1.367l2.928-1.7
					c0.477-0.277,1.088-0.116,1.367,0.363c0.277,0.478,0.114,1.089-0.363,1.367l-2.928,1.7C5.924,26.787,5.752,26.831,5.581,26.831z
					"/>
			</g>
			<g id="XMLID_2902_">
				<path style="fill:#FFFFFF;" d="M7.294,19.586c-0.034,0-0.068-0.001-0.104-0.005l-3.355-0.344
					c-0.549-0.056-0.948-0.547-0.893-1.097c0.057-0.549,0.54-0.952,1.098-0.893l3.355,0.344c0.549,0.056,0.948,0.547,0.893,1.097
					C8.235,19.203,7.801,19.586,7.294,19.586z"/>
			</g>
			<g id="XMLID_2899_">
				<path style="fill:#FFFFFF;" d="M14.513,11.576c-0.461,0-0.876-0.321-0.977-0.79l-0.718-3.335
					c-0.116-0.54,0.228-1.072,0.768-1.188c0.536-0.115,1.072,0.228,1.188,0.767l0.718,3.335c0.116,0.54-0.228,1.072-0.768,1.188
					C14.653,11.569,14.582,11.576,14.513,11.576z"/>
			</g>
			<g id="XMLID_2898_">
				<path style="fill:#FFFFFF;" d="M9.608,14.405c-0.238,0-0.477-0.084-0.667-0.255L6.42,11.89c-0.412-0.368-0.446-1-0.078-1.412
					c0.371-0.411,1.003-0.446,1.412-0.077l2.521,2.259c0.412,0.369,0.446,1,0.078,1.412C10.155,14.292,9.883,14.405,9.608,14.405z"
					/>
			</g>
			<g id="XMLID_2897_">
				<path style="fill:#FFFFFF;" d="M20.141,12.154c-0.135,0-0.271-0.028-0.403-0.086c-0.505-0.223-0.733-0.814-0.51-1.319
					l1.379-3.12c0.225-0.504,0.816-0.733,1.319-0.51c0.505,0.223,0.733,0.814,0.511,1.319l-1.381,3.12
					C20.891,11.931,20.524,12.154,20.141,12.154z"/>
			</g>
			<g id="XMLID_2896_">
				<path style="fill:#FFFFFF;" d="M24.372,15.919c-0.345,0-0.68-0.178-0.866-0.498c-0.277-0.478-0.114-1.089,0.363-1.367l2.928-1.7
					c0.477-0.278,1.088-0.116,1.367,0.363c0.277,0.478,0.114,1.089-0.363,1.367l-2.928,1.7
					C24.715,15.876,24.543,15.919,24.372,15.919z"/>
			</g>
		</g>
		<g id="XMLID_2892_">
			<path style="fill:#FFFFFF;" d="M32.536,32.886H10.854c-1.531,0-2.776-1.245-2.776-2.776c0-1.387,1.022-2.54,2.354-2.744
				c0.821-3.268,3.78-5.639,7.201-5.639c0.415,0,0.832,0.042,1.273,0.127c1.297-2.383,3.775-3.88,6.533-3.88
				c3.957,0,7.203,3.098,7.442,6.995c2.025,0.175,3.62,1.88,3.62,3.95C36.502,31.107,34.723,32.886,32.536,32.886z M10.854,29.334
				c-0.428,0-0.776,0.348-0.776,0.776s0.349,0.776,0.776,0.776h21.682c1.084,0,1.966-0.882,1.966-1.965s-0.882-1.965-1.966-1.965
				c-0.138,0-0.286,0.021-0.465,0.064l-1.366,0.335l0.133-1.401c0.008-0.086,0.02-0.172,0.031-0.258
				c0.012-0.088,0.026-0.175,0.026-0.266c0-3.008-2.447-5.455-5.456-5.455c-2.231,0-4.215,1.343-5.052,3.42l-0.34,0.844
				l-0.872-0.258c-0.583-0.173-1.073-0.253-1.543-0.253c-2.707,0-5.02,2.037-5.379,4.738l-0.115,0.868H10.854z"/>
		</g>
	</g>
</g>
<g id="RULES_1_">
</g>
</svg>
