<?xml version="1.0" encoding="iso-8859-1"?>
<!-- Generator: Adobe Illustrator 17.0.0, SVG Export Plug-In . SVG Version: 6.00 Build 0)  -->
<!DOCTYPE svg PUBLIC "-//W3C//DTD SVG 1.1//EN" "http://www.w3.org/Graphics/SVG/1.1/DTD/svg11.dtd">
<svg version="1.1" xmlns="http://www.w3.org/2000/svg" xmlns:xlink="http://www.w3.org/1999/xlink" x="0px" y="0px" width="40px"
	 height="40px" viewBox="0 0 40 40" style="enable-background:new 0 0 40 40;" xml:space="preserve">
<g id="Rectangle_11_copy_5_1_" style="enable-background:new    ;">
</g>
<g id="Sanctuaries_xA0_Image_1_">
</g>
<g id="Charting_xA0_Image_1_">
</g>
<g id="marine__x26__aviation_xA0_Image_1_">
</g>
<g id="Research_xA0_Image_1_">
</g>
<g id="Satelittes_xA0_Image_1_">
</g>
<g id="fisheries_xA0_Image_1_">
</g>
<g id="oceans_and_coasts_xA0_Image_1_">
</g>
<g id="Climate_xA0_Image_1_">
</g>
<g id="weather_xA0_Image_1_">
	<g id="XMLID_11_">
		<g id="XMLID_45_">
			<g>
				<path style="fill:#FFFFFF;" d="M17.19,29.641c-0.604,0-1.192-0.138-1.737-0.418c-1.405-0.721-2.312-2.281-2.312-3.974
					c0-2.009,1.307-3.211,2.668-3.917c-0.398-0.077-0.814-0.126-1.227-0.126c-3.625,0-6.918,4.924-7.881,6.821l-1.783-0.905
					c0.164-0.323,4.082-7.916,9.664-7.916c2.406,0,4.742,1.233,4.841,1.286l2.772,1.481l-3.119,0.393
					c-0.037,0.005-3.936,0.539-3.936,2.883c0,0.936,0.492,1.818,1.226,2.194c0.73,0.374,1.605,0.225,2.527-0.437l1.166,1.625
					C19.127,29.301,18.137,29.641,17.19,29.641z"/>
			</g>
		</g>
		<g id="XMLID_44_">
			<g>
				
					<rect x="14.995" y="22.385" transform="matrix(0.583 0.8125 -0.8125 0.583 31.3018 -0.3531)" style="fill:#FFFFFF;" width="2" height="15.863"/>
			</g>
		</g>
		<g id="XMLID_43_">
			<g>
				<polygon style="fill:#FFFFFF;" points="29.777,34.699 27.132,17.882 24.674,17.882 22.32,34.683 20.34,34.405 22.933,15.882 
					28.842,15.882 31.754,34.389 				"/>
			</g>
		</g>
		<g id="XMLID_22_">
			<g>
				<polygon style="fill:#FFFFFF;" points="31.289,7.647 20.674,7.647 25.981,4.407 				"/>
			</g>
		</g>
		<g id="XMLID_21_">
			<g>
				<rect x="25.048" y="3.71" style="fill:#FFFFFF;" width="2" height="2.403"/>
			</g>
		</g>
		<g id="XMLID_18_">
			<g>
				<rect x="20.55" y="10.946" style="fill:#FFFFFF;" width="2" height="2.202"/>
			</g>
		</g>
		<g id="XMLID_17_">
			<g>
				<rect x="23.231" y="6.907" style="fill:#FFFFFF;" width="2" height="2.752"/>
			</g>
		</g>
		<g id="XMLID_16_">
			<g>
				<rect x="26.683" y="6.907" style="fill:#FFFFFF;" width="2" height="2.752"/>
			</g>
		</g>
		<g id="XMLID_15_">
			<g>
				<rect x="29.239" y="10.946" style="fill:#FFFFFF;" width="2" height="2.202"/>
			</g>
		</g>
		<g id="XMLID_14_">
			<g>
				<path style="fill:#FFFFFF;" d="M28.544,17.882h-5.297l-3.492-5.638h12.279L28.544,17.882z M24.36,15.882h3.07l1.014-1.638
					h-5.098L24.36,15.882z"/>
			</g>
		</g>
		<g id="XMLID_13_">
			<g>
				<path style="fill:#FFFFFF;" d="M28.683,13.412h-5.452V8.659h5.452V13.412z M25.231,11.412h1.452v-0.752h-1.452V11.412z"/>
			</g>
		</g>
		<g id="XMLID_12_">
			<g>
				<rect x="23.988" y="31.89" style="fill:#FFFFFF;" width="2" height="2.654"/>
			</g>
		</g>
	</g>
</g>
<g id="RULES_1_">
</g>
</svg>
