<?xml version="1.0" encoding="iso-8859-1"?>
<!-- Generator: Adobe Illustrator 17.0.0, SVG Export Plug-In . SVG Version: 6.00 Build 0)  -->
<!DOCTYPE svg PUBLIC "-//W3C//DTD SVG 1.1//EN" "http://www.w3.org/Graphics/SVG/1.1/DTD/svg11.dtd">
<svg version="1.1" xmlns="http://www.w3.org/2000/svg" xmlns:xlink="http://www.w3.org/1999/xlink" x="0px" y="0px" width="40px"
	 height="40px" viewBox="0 0 40 40" style="enable-background:new 0 0 40 40;" xml:space="preserve">
<g id="Rectangle_11_copy_5_1_" style="enable-background:new    ;">
</g>
<g id="Sanctuaries_xA0_Image_1_">
</g>
<g id="Charting_xA0_Image_1_">
</g>
<g id="marine__x26__aviation_xA0_Image_1_">
</g>
<g id="Research_xA0_Image_1_">
</g>
<g id="Satelittes_xA0_Image_1_">
</g>
<g id="fisheries_xA0_Image_1_">
</g>
<g id="oceans_and_coasts_xA0_Image_1_">
</g>
<g id="Climate_xA0_Image_1_">
</g>
<g id="weather_xA0_Image_1_">
	<g id="XMLID_73_">
		<g id="XMLID_79_">
			<g>
				<path style="fill:#FFFFFF;" d="M17.164,15.461c-0.088-0.194-0.802-0.774-2.099-1.208c-2.477-0.831-4.126-1.74-5.042-2.781
					c-0.03-0.033-2.933-3.4-2.293-5.126C7.916,5.843,8.34,5.511,8.891,5.434c0.903-0.128,1.635,0.312,2.343,0.736
					c0.761,0.455,1.546,0.926,2.753,0.957c2.692,0.069,4.171,0.161,5.761,1.354l-1.201,1.6c-1.063-0.798-1.997-0.887-4.61-0.955
					c-1.732-0.044-2.887-0.735-3.729-1.239c-0.105-0.063-0.209-0.125-0.31-0.183c0.362,0.74,1.032,1.772,1.627,2.448
					c0.667,0.758,2.073,1.5,4.177,2.206c0.7,0.235,3.013,1.117,3.398,2.603L17.164,15.461z"/>
			</g>
		</g>
		<g id="XMLID_78_">
			<g>
				<path style="fill:#FFFFFF;" d="M33.332,28.789c-2.491,0-3.767-1.105-4.892-2.081c-1.025-0.889-1.836-1.592-3.58-1.592
					c-1.743,0-2.553,0.703-3.578,1.592c-1.124,0.976-2.398,2.081-4.888,2.081c-2.49,0-3.765-1.105-4.89-2.081
					c-1.025-0.889-1.835-1.592-3.579-1.592v-2c2.49,0,3.765,1.105,4.89,2.081c1.025,0.889,1.835,1.592,3.579,1.592
					c1.743,0,2.552-0.702,3.577-1.592c1.124-0.975,2.398-2.081,4.889-2.081c2.491,0,3.766,1.105,4.891,2.081
					c1.025,0.89,1.836,1.592,3.581,1.592V28.789z"/>
			</g>
		</g>
		<g id="XMLID_77_">
			<g>
				<path style="fill:#FFFFFF;" d="M33.332,34.675c-2.491,0-3.767-1.106-4.892-2.082c-1.025-0.889-1.836-1.592-3.58-1.592
					c-1.743,0-2.553,0.703-3.578,1.592c-1.124,0.976-2.398,2.081-4.888,2.081c-2.49,0-3.765-1.106-4.89-2.081
					c-1.025-0.89-1.835-1.592-3.579-1.592v-2c2.49,0,3.765,1.106,4.89,2.081c1.025,0.89,1.835,1.592,3.579,1.592
					c1.743,0,2.552-0.703,3.577-1.592c1.124-0.976,2.398-2.082,4.889-2.082c2.491,0,3.766,1.105,4.891,2.081
					c1.025,0.89,1.836,1.592,3.581,1.592V34.675z"/>
			</g>
		</g>
		<g id="XMLID_76_">
			<g>
				<path style="fill:#FFFFFF;stroke:#094F96;stroke-width:2;stroke-miterlimit:10;" d="M22.976,22.843"/>
			</g>
		</g>
		<g id="XMLID_75_">
			<g>
				<path style="fill:#FFFFFF;" d="M23.375,23.164l-0.008-1.013c-0.006-0.812-0.582-3.493-0.893-4.156l-1.097-2.336l1.811-0.85
					l1.097,2.337c0.458,0.978,1.074,3.979,1.082,4.99l0.008,1.013L23.375,23.164z"/>
			</g>
		</g>
		<g id="XMLID_74_">
			<g>
				<path style="fill:#FFFFFF;" d="M15.422,28.021c-0.088-0.37-0.069-0.573,1.044-4.781c0.424-1.598,0.86-3.25,0.97-3.845
					c0.112-0.612,0.012-1.784-0.084-2.917c-0.103-1.196-0.208-2.433-0.145-3.546c0.143-2.523,1.421-4.656,3.601-6.006
					c0.821-0.51,4.309-3.339,4.609-3.627c0.331-0.346,0.848-0.47,1.334-0.318c0.982,0.308,1.617,1.584,1.998,4.015
					c0.541,3.461-4.019,7.167-5.735,8.563c-0.186,0.151-0.329,0.267-0.413,0.341c-0.404,0.361-0.429,0.53-0.434,1.693l-0.001,0.125
					l-2-0.011l0.001-0.124c0.006-1.229,0.01-2.201,1.102-3.175c0.098-0.087,0.265-0.224,0.483-0.402
					c3.573-2.904,5.262-5.159,5.021-6.702c-0.173-1.103-0.375-1.735-0.526-2.085c-1.17,0.977-3.64,2.945-4.385,3.407
					c-1.609,0.998-2.554,2.567-2.658,4.419c-0.055,0.972,0.045,2.137,0.141,3.264c0.118,1.38,0.22,2.571,0.059,3.447
					c-0.122,0.67-0.55,2.286-1.003,3.996c-0.41,1.551-0.973,3.675-1.009,4.048l-0.735-0.072L15.422,28.021z"/>
			</g>
		</g>
	</g>
</g>
<g id="RULES_1_">
</g>
</svg>
