<?xml version="1.0" encoding="iso-8859-1"?>
<!-- Generator: Adobe Illustrator 17.0.0, SVG Export Plug-In . SVG Version: 6.00 Build 0)  -->
<!DOCTYPE svg PUBLIC "-//W3C//DTD SVG 1.1//EN" "http://www.w3.org/Graphics/SVG/1.1/DTD/svg11.dtd">
<svg version="1.1" xmlns="http://www.w3.org/2000/svg" xmlns:xlink="http://www.w3.org/1999/xlink" x="0px" y="0px" width="40px"
	 height="40px" viewBox="0 0 40 40" style="enable-background:new 0 0 40 40;" xml:space="preserve">
<g id="Rectangle_11_copy_5_1_" style="enable-background:new    ;">
</g>
<g id="Sanctuaries_xA0_Image_1_">
</g>
<g id="Charting_xA0_Image_1_">
</g>
<g id="marine__x26__aviation_xA0_Image_1_">
</g>
<g id="Research_xA0_Image_1_">
</g>
<g id="Satelittes_xA0_Image_1_">
</g>
<g id="fisheries_xA0_Image_1_">
</g>
<g id="oceans_and_coasts_xA0_Image_1_">
</g>
<g id="Climate_xA0_Image_1_">
</g>
<g id="weather_xA0_Image_1_">
	<g id="XMLID_34_">
		<g>
			<path style="fill:#FFFFFF;" d="M8.285,23.887L4.685,12.054l7.242-2.204l3.601,11.833L8.285,23.887z M7.181,13.385l2.437,8.006
				l3.414-1.039l-2.437-8.006L7.181,13.385z"/>
		</g>
	</g>
	<g id="XMLID_33_">
		<g>
			<path style="fill:#FFFFFF;" d="M26.253,18.419L22.653,6.586l7.212-2.195l3.601,11.833L26.253,18.419z M25.149,7.917l2.436,8.006
				l3.385-1.03l-2.436-8.006L25.149,7.917z"/>
		</g>
	</g>
	<g id="XMLID_32_">
		<g>
			<path style="fill:#FFFFFF;" d="M16.869,19.115l-2.399-7.88l6.96-2.118l2.399,7.88L16.869,19.115z M16.966,12.566L18.2,16.62
				l3.134-0.954L20.1,11.612L16.966,12.566z"/>
		</g>
	</g>
	<g id="XMLID_31_">
		<g>
			
				<rect x="14.167" y="13.803" transform="matrix(0.2911 0.9567 -0.9567 0.2911 25.4171 -3.6426)" style="fill:#FFFFFF;" width="2" height="3.052"/>
		</g>
	</g>
	<g id="XMLID_30_">
		<g>
			
				<rect x="22.059" y="11.478" transform="matrix(0.2911 0.9567 -0.9567 0.2911 28.7143 -12.8964)" style="fill:#FFFFFF;" width="2" height="2.897"/>
		</g>
	</g>
	<g id="XMLID_29_">
		<g>
			<path style="fill:#FFFFFF;" d="M35.046,27.814c-3.297-1.758-6.396-2.321-9.752-1.773l-0.322-1.974
				c3.762-0.614,7.362,0.035,11.016,1.982L35.046,27.814z"/>
		</g>
	</g>
	<g id="XMLID_28_">
		<g>
			<path style="fill:#FFFFFF;" d="M13.193,34.465l-1.766-0.94c1.151-2.16,2.691-4.029,4.576-5.557
				c1.146-0.929,2.406-1.717,3.747-2.343l0.846,1.812c-1.193,0.557-2.314,1.258-3.333,2.084
				C15.586,30.879,14.217,32.543,13.193,34.465z"/>
		</g>
	</g>
	<g id="XMLID_27_">
		<g>
			<polygon style="fill:#FFFFFF;" points="20.06,32.569 18.091,32.212 20.538,18.724 29.929,28.619 28.478,29.996 21.802,22.962 			
				"/>
		</g>
	</g>
</g>
<g id="RULES_1_">
</g>
</svg>
